ffmpeg started on 2016-12-09 at 03:56:07
Report written to "Output/x264/results/ffmpeg/crowd_run_2160p50placebo500k.log"
Command line:
Tools/ffmpeg/ffmpeg -benchmark -y -i Input/y4m/crowd_run_2160p50.y4m -c:v libx264 -preset placebo -b:v 500k -an Output/x264/encoded/crowd_run_2160p50placebo500k.mkv
ffmpeg version N-82227-gdb23fde Copyright (c) 2000-2016 the FFmpeg developers
  built with gcc 5.4.0 (Ubuntu 5.4.0-6ubuntu1~16.04.2) 20160609
  configuration: --prefix=/home/jaroslav/ffmpeg_build --pkg-config-flags=--static --extra-cflags=-I/home/jaroslav/ffmpeg_build/include --extra-ldflags=-L/home/jaroslav/ffmpeg_build/lib --bindir=/home/jaroslav/bin --enable-gpl --enable-libass --enable-libfdk-aac --enable-libfreetype --enable-libmp3lame --enable-libopus --enable-libtheora --enable-libvorbis --enable-libvpx --enable-libx264 --enable-libx265 --enable-nvenc --enable-libmfx --enable-libxvid --enable-libgsm --enable-libopencore-amrnb --enable-version3 --enable-nonfree
  libavutil      55. 35.100 / 55. 35.100
  libavcodec     57. 66.101 / 57. 66.101
  libavformat    57. 57.100 / 57. 57.100
  libavdevice    57.  2.100 / 57.  2.100
  libavfilter     6. 66.100 /  6. 66.100
  libswscale      4.  3.100 /  4.  3.100
  libswresample   2.  4.100 /  2.  4.100
  libpostproc    54.  2.100 / 54.  2.100
Input #0, yuv4mpegpipe, from 'Input/y4m/crowd_run_2160p50.y4m':
  Duration: 00:00:10.00, start: 0.000000, bitrate: 4976642 kb/s
    Stream #0:0: Video: rawvideo (I420 / 0x30323449), yuv420p(progressive), 3840x2160, SAR 1:1 DAR 16:9, 50 fps, 50 tbr, 50 tbn, 50 tbc
[libx264 @ 0x2adf1c0] using SAR=1/1
[libx264 @ 0x2adf1c0] DPB size (16 frames, 518400 mbs) > level limit (5 frames, 184320 mbs)
[libx264 @ 0x2adf1c0] using cpu capabilities: MMX2 SSE2Fast SSSE3 SSE4.2 AVX FMA3 AVX2 LZCNT BMI2
[libx264 @ 0x2adf1c0] profile High, level 5.2
[libx264 @ 0x2adf1c0] 264 - core 148 - H.264/MPEG-4 AVC codec - Copyleft 2003-2016 - http://www.videolan.org/x264.html - options: cabac=1 ref=16 deblock=1:0:0 analyse=0x3:0x133 me=tesa subme=11 psy=1 psy_rd=1.00:0.00 mixed_ref=1 me_range=24 chroma_me=1 trellis=2 8x8dct=1 cqm=0 deadzone=21,11 fast_pskip=0 chroma_qp_offset=-2 threads=6 lookahead_threads=1 sliced_threads=0 nr=0 decimate=1 interlaced=0 bluray_compat=0 constrained_intra=0 bframes=16 b_pyramid=2 b_adapt=2 b_bias=0 direct=3 weightb=1 open_gop=0 weightp=2 keyint=250 keyint_min=25 scenecut=40 intra_refresh=0 rc_lookahead=60 rc=abr mbtree=1 bitrate=500 ratetol=1.0 qcomp=0.60 qpmin=0 qpmax=69 qpstep=4 ip_ratio=1.40 aq=1:1.00
Output #0, matroska, to 'Output/x264/encoded/crowd_run_2160p50placebo500k.mkv':
  Metadata:
    encoder         : Lavf57.57.100
    Stream #0:0: Video: h264 (libx264) (H264 / 0x34363248), yuv420p, 3840x2160 [SAR 1:1 DAR 16:9], q=-1--1, 500 kb/s, 50 fps, 1k tbn, 50 tbc
    Metadata:
      encoder         : Lavc57.66.101 libx264
    Side data:
      cpb: bitrate max/min/avg: 0/0/500000 buffer size: 0 vbv_delay: -1
Stream mapping:
  Stream #0:0 -> #0:0 (rawvideo (native) -> h264 (libx264))
Press [q] to stop, [?] for help
frame=   11 fps=0.0 q=0.0 size=       0kB time=00:00:00.00 bitrate=N/A speed=   0x    frame=   18 fps= 17 q=0.0 size=       0kB time=00:00:00.00 bitrate=N/A speed=   0x    frame=   28 fps= 18 q=0.0 size=       0kB time=00:00:00.00 bitrate=N/A speed=   0x    frame=   37 fps= 17 q=0.0 size=       0kB time=00:00:00.00 bitrate=N/A speed=   0x    frame=   44 fps= 17 q=0.0 size=       0kB time=00:00:00.00 bitrate=N/A speed=   0x    frame=   51 fps= 16 q=0.0 size=       0kB time=00:00:00.00 bitrate=N/A speed=   0x    frame=   58 fps= 16 q=0.0 size=       0kB time=00:00:00.00 bitrate=N/A speed=   0x    frame=   65 fps= 15 q=0.0 size=       0kB time=00:00:00.00 bitrate=N/A speed=   0x    frame=   72 fps= 15 q=0.0 size=       0kB time=00:00:00.00 bitrate=N/A speed=   0x    frame=   78 fps= 15 q=0.0 size=       0kB time=00:00:00.00 bitrate=N/A speed=   0x    frame=   84 fps=3.2 q=0.0 size=       0kB time=00:00:00.00 bitrate=N/A speed=   0x    frame=   89 fps=3.3 q=68.0 size=       1kB time=-00:00:00.01 bitrate=N/A speed=N/A    frame=   90 fps=2.7 q=63.0 size=       1kB time=00:00:00.00 bitrate=5888.0kbits/s speed=3.03e-05x    frame=   95 fps=2.4 q=68.0 size=       1kB time=00:00:00.10 bitrate=  58.3kbits/s speed=0.0026x    frame=  100 fps=2.3 q=69.0 size=       1kB time=00:00:00.20 bitrate=  29.3kbits/s speed=0.00455x    frame=  105 fps=2.1 q=69.0 size=       1kB time=00:00:00.30 bitrate=  19.6kbits/s speed=0.00615x    frame=  106 fps=2.1 q=69.0 size=       1kB time=00:00:00.32 bitrate=  18.3kbits/s speed=0.00634x    frame=  110 fps=2.0 q=69.0 size=       1kB time=00:00:00.40 bitrate=  14.7kbits/s speed=0.00727x    frame=  111 fps=2.0 q=69.0 size=       1kB time=00:00:00.42 bitrate=  14.0kbits/s speed=0.00756x    frame=  113 fps=2.0 q=69.0 size=       1kB time=00:00:00.46 bitrate=  12.8kbits/s speed=0.0082x    frame=  114 fps=1.9 q=69.0 size=       1kB time=00:00:00.48 bitrate=  12.2kbits/s speed=0.00808x    frame=  115 fps=1.9 q=69.0 size=       1kB time=00:00:00.50 bitrate=  11.8kbits/s speed=0.0081x    frame=  117 fps=1.9 q=69.0 size=       1kB time=00:00:00.54 bitrate=  10.9kbits/s speed=0.00864x    frame=  118 fps=1.9 q=69.0 size=       1kB time=00:00:00.56 bitrate=  10.5kbits/s speed=0.00882x    frame=  119 fps=1.7 q=69.0 size=       1kB time=00:00:00.58 bitrate=  10.1kbits/s speed=0.00849x    frame=  121 fps=1.7 q=69.0 size=       1kB time=00:00:00.62 bitrate=   9.5kbits/s speed=0.00895x    frame=  123 fps=1.6 q=69.0 size=       1kB time=00:00:00.66 bitrate=   8.9kbits/s speed=0.00886x    frame=  125 fps=1.7 q=69.0 size=       1kB time=00:00:00.70 bitrate=   8.4kbits/s speed=0.00928x    frame=  127 fps=1.6 q=69.0 size=       1kB time=00:00:00.74 bitrate=   7.9kbits/s speed=0.00909x    frame=  129 fps=1.6 q=69.0 size=       1kB time=00:00:00.78 bitrate=   7.5kbits/s speed=0.00948x    frame=  132 fps=1.5 q=69.0 size=       1kB time=00:00:00.84 bitrate=   7.0kbits/s speed=0.00949x    frame=  134 fps=1.5 q=69.0 size=       1kB time=00:00:00.88 bitrate=   6.7kbits/s speed=0.00983x    frame=  137 fps=1.4 q=69.0 size=       1kB time=00:00:00.94 bitrate=   6.3kbits/s speed=0.00984x    frame=  139 fps=1.4 q=69.0 size=       1kB time=00:00:00.98 bitrate=   6.0kbits/s speed=0.0102x    frame=  142 fps=1.4 q=69.0 size=       1kB time=00:00:01.04 bitrate=   5.7kbits/s speed=0.0102x    frame=  144 fps=1.4 q=69.0 size=       1kB time=00:00:01.08 bitrate=   5.4kbits/s speed=0.0104x    frame=  147 fps=1.4 q=69.0 size=       1kB time=00:00:01.14 bitrate=   5.2kbits/s speed=0.0105x    frame=  149 fps=1.4 q=69.0 size=       1kB time=00:00:01.18 bitrate=   5.0kbits/s speed=0.0108x    frame=  151 fps=1.3 q=69.0 size=       1kB time=00:00:01.22 bitrate=   4.8kbits/s speed=0.0107x    frame=  153 fps=1.3 q=69.0 size=       1kB time=00:00:01.26 bitrate=   4.7kbits/s speed=0.011x    frame=  156 fps=1.3 q=69.0 size=       1kB time=00:00:01.32 bitrate=   4.5kbits/s speed=0.0112x    frame=  157 fps=1.3 q=69.0 size=       1kB time=00:00:01.34 bitrate=   4.4kbits/s speed=0.0112x    frame=  158 fps=1.3 q=69.0 size=       1kB time=00:00:01.36 bitrate=   4.3kbits/s speed=0.0113x    frame=  160 fps=1.3 q=69.0 size=       1kB time=00:00:01.40 bitrate=   4.2kbits/s speed=0.0113x    frame=  162 fps=1.3 q=69.0 size=       1kB time=00:00:01.44 bitrate=   4.1kbits/s speed=0.0115x    frame=  164 fps=1.3 q=69.0 size=       1kB time=00:00:01.48 bitrate=   4.0kbits/s speed=0.0118x    frame=  165 fps=1.3 q=69.0 size=       1kB time=00:00:01.50 bitrate=   3.9kbits/s speed=0.0115x    frame=  167 fps=1.3 q=69.0 size=       1kB time=00:00:01.54 bitrate=   3.8kbits/s speed=0.0117x    frame=  169 fps=1.3 q=69.0 size=       1kB time=00:00:01.58 bitrate=   3.7kbits/s speed=0.0118x    frame=  171 fps=1.3 q=69.0 size=       1kB time=00:00:01.62 bitrate=   3.6kbits/s speed=0.0119x    frame=  174 fps=1.2 q=69.0 size=       1kB time=00:00:01.68 bitrate=   3.5kbits/s speed=0.0119x    frame=  176 fps=1.2 q=69.0 size=       1kB time=00:00:01.72 bitrate=   3.4kbits/s speed=0.0122x    frame=  179 fps=1.2 q=69.0 size=       1kB time=00:00:01.78 bitrate=   3.3kbits/s speed=0.0123x    frame=  180 fps=1.2 q=69.0 size=       1kB time=00:00:01.80 bitrate=   3.3kbits/s speed=0.0123x    frame=  181 fps=1.2 q=69.0 size=       1kB time=00:00:01.82 bitrate=   3.2kbits/s speed=0.0123x    frame=  183 fps=1.2 q=69.0 size=       1kB time=00:00:01.86 bitrate=   3.2kbits/s speed=0.0123x    frame=  185 fps=1.2 q=69.0 size=       1kB time=00:00:01.90 bitrate=   3.1kbits/s speed=0.0125x    frame=  187 fps=1.2 q=69.0 size=       1kB time=00:00:01.94 bitrate=   3.0kbits/s speed=0.0124x    frame=  189 fps=1.2 q=69.0 size=       1kB time=00:00:01.98 bitrate=   3.0kbits/s speed=0.0126x    frame=  193 fps=1.2 q=69.0 size=       1kB time=00:00:02.06 bitrate=   2.9kbits/s speed=0.0125x    frame=  196 fps=1.2 q=69.0 size=       1kB time=00:00:02.12 bitrate=   2.8kbits/s speed=0.0129x    frame=  198 fps=1.2 q=69.0 size=       1kB time=00:00:02.16 bitrate=   2.7kbits/s speed=0.013x    frame=  199 fps=1.2 q=69.0 size=       1kB time=00:00:02.18 bitrate=   2.7kbits/s speed=0.0128x    frame=  200 fps=1.2 q=69.0 size=       1kB time=00:00:02.20 bitrate=   2.7kbits/s speed=0.0129x    frame=  204 fps=1.2 q=69.0 size=       1kB time=00:00:02.28 bitrate=   2.6kbits/s speed=0.013x    frame=  207 fps=1.2 q=69.0 size=       1kB time=00:00:02.34 bitrate=   2.5kbits/s speed=0.0133x    frame=  208 fps=1.2 q=69.0 size=       1kB time=00:00:02.36 bitrate=   2.5kbits/s speed=0.0131x    frame=  210 fps=1.2 q=69.0 size=       1kB time=00:00:02.40 bitrate=   2.5kbits/s speed=0.0132x    frame=  214 fps=1.1 q=69.0 size=       1kB time=00:00:02.48 bitrate=   2.4kbits/s speed=0.0132x    frame=  216 fps=1.1 q=69.0 size=       1kB time=00:00:02.52 bitrate=   2.3kbits/s speed=0.0134x    frame=  219 fps=1.2 q=69.0 size=       1kB time=00:00:02.58 bitrate=   2.3kbits/s speed=0.0137x    frame=  220 fps=1.1 q=69.0 size=       1kB time=00:00:02.60 bitrate=   2.3kbits/s speed=0.0135x    frame=  221 fps=1.1 q=69.0 size=       1kB time=00:00:02.62 bitrate=   2.2kbits/s speed=0.0135x    frame=  225 fps=1.1 q=69.0 size=       1kB time=00:00:02.70 bitrate=   2.2kbits/s speed=0.0137x    frame=  226 fps=1.1 q=69.0 size=       1kB time=00:00:02.72 bitrate=   2.2kbits/s speed=0.0137x    frame=  227 fps=1.1 q=69.0 size=       1kB time=00:00:02.74 bitrate=   2.1kbits/s speed=0.0138x    frame=  229 fps=1.1 q=69.0 size=       1kB time=00:00:02.78 bitrate=   2.1kbits/s speed=0.0137x    frame=  231 fps=1.1 q=69.0 size=       1kB time=00:00:02.82 bitrate=   2.1kbits/s speed=0.0138x    frame=  233 fps=1.1 q=69.0 size=       1kB time=00:00:02.86 bitrate=   2.1kbits/s speed=0.014x    frame=  234 fps=1.1 q=69.0 size=       1kB time=00:00:02.88 bitrate=   2.0kbits/s speed=0.0138x    frame=  237 fps=1.1 q=69.0 size=       1kB time=00:00:02.94 bitrate=   2.0kbits/s speed=0.014x    frame=  238 fps=1.1 q=69.0 size=       1kB time=00:00:02.96 bitrate=   2.0kbits/s speed=0.0139x    frame=  240 fps=1.1 q=69.0 size=       1kB time=00:00:03.00 bitrate=   2.0kbits/s speed=0.014x    frame=  244 fps=1.1 q=69.0 size=       1kB time=00:00:03.08 bitrate=   1.9kbits/s speed=0.0139x    frame=  246 fps=1.1 q=69.0 size=       1kB time=00:00:03.12 bitrate=   1.9kbits/s speed=0.0141x    frame=  250 fps=1.1 q=69.0 size=       1kB time=00:00:03.20 bitrate=   1.8kbits/s speed=0.014x    frame=  252 fps=1.1 q=69.0 size=       1kB time=00:00:03.24 bitrate=   1.8kbits/s speed=0.0142x    frame=  255 fps=1.1 q=69.0 size=       1kB time=00:00:03.30 bitrate=   1.8kbits/s speed=0.0143x    frame=  256 fps=1.1 q=69.0 size=       1kB time=00:00:03.32 bitrate=   1.8kbits/s speed=0.0142x    frame=  257 fps=1.1 q=69.0 size=       1kB time=00:00:03.34 bitrate=   1.8kbits/s speed=0.0142x    frame=  261 fps=1.1 q=69.0 size=       1kB time=00:00:03.42 bitrate=   1.7kbits/s speed=0.0143x    frame=  266 fps=1.1 q=68.0 size=       1kB time=00:00:03.52 bitrate=   1.7kbits/s speed=0.0144x    frame=  267 fps=1.1 q=68.0 size=       1kB time=00:00:03.54 bitrate=   1.7kbits/s speed=0.0144x    frame=  268 fps=1.1 q=68.0 size=       1kB time=00:00:03.56 bitrate=   1.7kbits/s speed=0.0144x    frame=  271 fps=1.1 q=68.0 size=       1kB time=00:00:03.62 bitrate=   1.6kbits/s speed=0.0145x    frame=  272 fps=1.1 q=68.0 size=       1kB time=00:00:03.64 bitrate=   1.6kbits/s speed=0.0145x    frame=  273 fps=1.1 q=68.0 size=       1kB time=00:00:03.66 bitrate=   1.6kbits/s speed=0.0145x    frame=  274 fps=1.1 q=68.0 size=       1kB time=00:00:03.68 bitrate=   1.6kbits/s speed=0.0145x    frame=  276 fps=1.1 q=68.0 size=       1kB time=00:00:03.72 bitrate=   1.6kbits/s speed=0.0145x    frame=  277 fps=1.1 q=68.0 size=       1kB time=00:00:03.74 bitrate=   1.6kbits/s speed=0.0146x    frame=  278 fps=1.1 q=68.0 size=       1kB time=00:00:03.76 bitrate=   1.6kbits/s speed=0.0146x    frame=  280 fps=1.1 q=68.0 size=       1kB time=00:00:03.80 bitrate=   1.5kbits/s speed=0.0145x    frame=  282 fps=1.1 q=68.0 size=       1kB time=00:00:03.84 bitrate=   1.5kbits/s speed=0.0145x    frame=  285 fps=1.1 q=68.0 size=       1kB time=00:00:03.90 bitrate=   1.5kbits/s speed=0.0146x    frame=  286 fps=1.1 q=68.0 size=       1kB time=00:00:03.92 bitrate=   1.5kbits/s speed=0.0145x    frame=  287 fps=1.1 q=68.0 size=       1kB time=00:00:03.94 bitrate=   1.5kbits/s speed=0.0145x    frame=  290 fps=1.1 q=68.0 size=       1kB time=00:00:04.00 bitrate=   1.5kbits/s speed=0.0146x    frame=  291 fps=1.1 q=68.0 size=       1kB time=00:00:04.02 bitrate=   1.5kbits/s speed=0.0146x    frame=  292 fps=1.1 q=68.0 size=       1kB time=00:00:04.04 bitrate=   1.5kbits/s speed=0.0146x    frame=  293 fps=1.1 q=67.0 size=       1kB time=00:00:04.06 bitrate=   1.4kbits/s speed=0.0146x    frame=  294 fps=1.0 q=68.0 size=       1kB time=00:00:04.08 bitrate=   1.4kbits/s speed=0.0145x    frame=  296 fps=1.0 q=68.0 size=       1kB time=00:00:04.12 bitrate=   1.4kbits/s speed=0.0146x    frame=  299 fps=1.0 q=67.0 size=       1kB time=00:00:04.18 bitrate=   1.4kbits/s speed=0.0145x    frame=  301 fps=1.0 q=67.0 size=       1kB time=00:00:04.22 bitrate=   1.4kbits/s speed=0.0146x    frame=  304 fps=1.0 q=67.0 size=       1kB time=00:00:04.28 bitrate=   1.4kbits/s speed=0.0147x    frame=  305 fps=1.0 q=67.0 size=       1kB time=00:00:04.30 bitrate=   1.4kbits/s speed=0.0146x    frame=  306 fps=1.0 q=67.0 size=       1kB time=00:00:04.32 bitrate=   1.4kbits/s speed=0.0146x    frame=  308 fps=1.0 q=67.0 size=       1kB time=00:00:04.36 bitrate=   1.4kbits/s speed=0.0146x    frame=  309 fps=1.0 q=67.0 size=       1kB time=00:00:04.38 bitrate=   1.3kbits/s speed=0.0147x    frame=  310 fps=1.0 q=67.0 size=       1kB time=00:00:04.40 bitrate=   1.3kbits/s speed=0.0147x    frame=  311 fps=1.0 q=67.0 size=       1kB time=00:00:04.42 bitrate=   1.3kbits/s speed=0.0147x    frame=  312 fps=1.0 q=67.0 size=       1kB time=00:00:04.44 bitrate=   1.3kbits/s speed=0.0147x    frame=  313 fps=1.0 q=67.0 size=       1kB time=00:00:04.46 bitrate=   1.3kbits/s speed=0.0146x    frame=  314 fps=1.0 q=67.0 size=       1kB time=00:00:04.48 bitrate=   1.3kbits/s speed=0.0146x    frame=  315 fps=1.0 q=67.0 size=       1kB time=00:00:04.50 bitrate=   1.3kbits/s speed=0.0146x    frame=  318 fps=1.0 q=67.0 size=       1kB time=00:00:04.56 bitrate=   1.3kbits/s speed=0.0146x    frame=  319 fps=1.0 q=67.0 size=       1kB time=00:00:04.58 bitrate=   1.3kbits/s speed=0.0146x    frame=  320 fps=1.0 q=67.0 size=       1kB time=00:00:04.60 bitrate=   1.3kbits/s speed=0.0146x    frame=  322 fps=1.0 q=67.0 size=       1kB time=00:00:04.64 bitrate=   1.3kbits/s speed=0.0147x    frame=  323 fps=1.0 q=67.0 size=       1kB time=00:00:04.66 bitrate=   1.3kbits/s speed=0.0146x    frame=  324 fps=1.0 q=67.0 size=       1kB time=00:00:04.68 bitrate=   1.3kbits/s speed=0.0146x    frame=  326 fps=1.0 q=67.0 size=       1kB time=00:00:04.72 bitrate=   1.2kbits/s speed=0.0147x    frame=  328 fps=1.0 q=67.0 size=       1kB time=00:00:04.76 bitrate=   1.2kbits/s speed=0.0146x    frame=  329 fps=1.0 q=67.0 size=       1kB time=00:00:04.78 bitrate=   1.2kbits/s speed=0.0146x    frame=  330 fps=1.0 q=67.0 size=       1kB time=00:00:04.80 bitrate=   1.2kbits/s speed=0.0146x    frame=  333 fps=1.0 q=64.0 size=       1kB time=00:00:04.86 bitrate=   1.2kbits/s speed=0.0146x    frame=  334 fps=1.0 q=67.0 size=       1kB time=00:00:04.88 bitrate=   1.2kbits/s speed=0.0146x    frame=  335 fps=1.0 q=67.0 size=       1kB time=00:00:04.90 bitrate=   1.2kbits/s speed=0.0146x    frame=  338 fps=1.0 q=67.0 size=     290kB time=00:00:04.96 bitrate= 479.4kbits/s speed=0.0147x    frame=  344 fps=1.0 q=67.0 size=     290kB time=00:00:05.08 bitrate= 468.0kbits/s speed=0.0149x    frame=  347 fps=1.0 q=67.0 size=     290kB time=00:00:05.14 bitrate= 462.6kbits/s speed=0.015x    frame=  349 fps=1.0 q=67.0 size=     290kB time=00:00:05.18 bitrate= 459.0kbits/s speed=0.0151x    frame=  350 fps=1.0 q=67.0 size=     290kB time=00:00:05.20 bitrate= 457.2kbits/s speed=0.015x    frame=  351 fps=1.0 q=67.0 size=     290kB time=00:00:05.22 bitrate= 455.5kbits/s speed=0.0151x    frame=  354 fps=1.0 q=67.0 size=     290kB time=00:00:05.28 bitrate= 450.3kbits/s speed=0.0151x    frame=  356 fps=1.0 q=67.0 size=     290kB time=00:00:05.32 bitrate= 446.9kbits/s speed=0.0151x    frame=  357 fps=1.0 q=67.0 size=     290kB time=00:00:05.34 bitrate= 445.2kbits/s speed=0.0151x    frame=  358 fps=1.0 q=67.0 size=     290kB time=00:00:05.36 bitrate= 443.6kbits/s speed=0.0151x    frame=  359 fps=1.0 q=67.0 size=     290kB time=00:00:05.38 bitrate= 441.9kbits/s speed=0.0151x    frame=  360 fps=1.0 q=67.0 size=     290kB time=00:00:05.40 bitrate= 440.3kbits/s speed=0.0151x    frame=  362 fps=1.0 q=68.0 size=     290kB time=00:00:05.44 bitrate= 437.1kbits/s speed=0.0151x    frame=  363 fps=1.0 q=68.0 size=     290kB time=00:00:05.46 bitrate= 435.5kbits/s speed=0.015x    frame=  365 fps=1.0 q=68.0 size=     290kB time=00:00:05.50 bitrate= 432.3kbits/s speed=0.015x    frame=  368 fps=1.0 q=68.0 size=     290kB time=00:00:05.56 bitrate= 427.6kbits/s speed=0.0149x    frame=  369 fps=1.0 q=68.0 size=     290kB time=00:00:05.58 bitrate= 426.1kbits/s speed=0.015x    frame=  370 fps=1.0 q=68.0 size=     290kB time=00:00:05.60 bitrate= 424.6kbits/s speed=0.0149x    frame=  373 fps=1.0 q=68.0 size=     290kB time=00:00:05.66 bitrate= 420.1kbits/s speed=0.0149x    frame=  374 fps=1.0 q=68.0 size=     290kB time=00:00:05.68 bitrate= 418.6kbits/s speed=0.0149x    frame=  375 fps=1.0 q=68.0 size=     290kB time=00:00:05.70 bitrate= 417.1kbits/s speed=0.0149x    frame=  376 fps=1.0 q=68.0 size=     290kB time=00:00:05.72 bitrate= 415.7kbits/s speed=0.015x    frame=  377 fps=1.0 q=68.0 size=     290kB time=00:00:05.74 bitrate= 414.2kbits/s speed=0.015x    frame=  378 fps=1.0 q=68.0 size=     290kB time=00:00:05.76 bitrate= 412.8kbits/s speed=0.0148x    frame=  380 fps=1.0 q=68.0 size=     290kB time=00:00:05.80 bitrate= 409.9kbits/s speed=0.0149x    frame=  382 fps=1.0 q=68.0 size=     290kB time=00:00:05.84 bitrate= 407.1kbits/s speed=0.0148x    frame=  383 fps=1.0 q=68.0 size=     290kB time=00:00:05.86 bitrate= 405.7kbits/s speed=0.0148x    frame=  384 fps=1.0 q=68.0 size=     290kB time=00:00:05.88 bitrate= 404.4kbits/s speed=0.0148x    frame=  386 fps=1.0 q=68.0 size=     290kB time=00:00:05.92 bitrate= 401.6kbits/s speed=0.0149x    frame=  387 fps=1.0 q=68.0 size=     290kB time=00:00:05.94 bitrate= 400.3kbits/s speed=0.0147x    frame=  389 fps=1.0 q=68.0 size=     290kB time=00:00:05.98 bitrate= 397.6kbits/s speed=0.0148x    frame=  391 fps=1.0 q=68.0 size=     290kB time=00:00:06.02 bitrate= 395.0kbits/s speed=0.0147x    frame=  392 fps=1.0 q=68.0 size=     290kB time=00:00:06.04 bitrate= 393.7kbits/s speed=0.0148x    frame=  393 fps=1.0 q=68.0 size=     290kB time=00:00:06.06 bitrate= 392.4kbits/s speed=0.0147x    frame=  395 fps=1.0 q=68.0 size=     290kB time=00:00:06.10 bitrate= 389.8kbits/s speed=0.0148x    frame=  396 fps=0.9 q=68.0 size=     290kB time=00:00:06.12 bitrate= 388.5kbits/s speed=0.0146x    frame=  398 fps=0.9 q=68.0 size=     290kB time=00:00:06.16 bitrate= 386.0kbits/s speed=0.0147x    frame=  401 fps=1.0 q=68.0 size=     290kB time=00:00:06.22 bitrate= 382.3kbits/s speed=0.0148x    frame=  402 fps=0.9 q=68.0 size=     290kB time=00:00:06.24 bitrate= 381.0kbits/s speed=0.0146x    frame=  404 fps=0.9 q=68.0 size=     290kB time=00:00:06.28 bitrate= 378.6kbits/s speed=0.0147x    frame=  407 fps=0.9 q=68.0 size=     290kB time=00:00:06.34 bitrate= 375.0kbits/s speed=0.0147x    frame=  408 fps=0.9 q=68.0 size=     290kB time=00:00:06.36 bitrate= 373.9kbits/s speed=0.0146x    frame=  409 fps=0.9 q=68.0 size=     290kB time=00:00:06.38 bitrate= 372.7kbits/s speed=0.0146x    frame=  412 fps=0.9 q=68.0 size=     290kB time=00:00:06.44 bitrate= 369.2kbits/s speed=0.0146x    frame=  413 fps=0.9 q=68.0 size=     290kB time=00:00:06.46 bitrate= 368.1kbits/s speed=0.0146x    frame=  415 fps=0.9 q=68.0 size=     290kB time=00:00:06.50 bitrate= 365.8kbits/s speed=0.0147x    frame=  416 fps=0.9 q=68.0 size=     290kB time=00:00:06.52 bitrate= 364.7kbits/s speed=0.0147x    frame=  417 fps=0.9 q=68.0 size=     290kB time=00:00:06.54 bitrate= 363.6kbits/s speed=0.0145x    frame=  418 fps=0.9 q=68.0 size=     290kB time=00:00:06.56 bitrate= 362.5kbits/s speed=0.0146x    frame=  419 fps=0.9 q=68.0 size=     290kB time=00:00:06.58 bitrate= 361.4kbits/s speed=0.0146x    frame=  421 fps=0.9 q=68.0 size=     290kB time=00:00:06.62 bitrate= 359.2kbits/s speed=0.0146x    frame=  422 fps=0.9 q=68.0 size=     290kB time=00:00:06.64 bitrate= 358.1kbits/s speed=0.0146x    frame=  423 fps=0.9 q=68.0 size=     290kB time=00:00:06.66 bitrate= 357.0kbits/s speed=0.0146x    frame=  424 fps=0.9 q=68.0 size=     290kB time=00:00:06.68 bitrate= 355.9kbits/s speed=0.0146x    frame=  425 fps=0.9 q=68.0 size=     290kB time=00:00:06.70 bitrate= 354.9kbits/s speed=0.0146x    frame=  426 fps=0.9 q=68.0 size=     290kB time=00:00:06.72 bitrate= 353.8kbits/s speed=0.0145x    frame=  427 fps=0.9 q=68.0 size=     290kB time=00:00:06.74 bitrate= 352.8kbits/s speed=0.0145x    frame=  428 fps=0.9 q=68.0 size=     290kB time=00:00:06.76 bitrate= 351.7kbits/s speed=0.0145x    frame=  430 fps=0.9 q=68.0 size=     290kB time=00:00:06.80 bitrate= 349.7kbits/s speed=0.0145x    frame=  431 fps=0.9 q=68.0 size=     290kB time=00:00:06.82 bitrate= 348.6kbits/s speed=0.0145x    frame=  433 fps=0.9 q=68.0 size=     290kB time=00:00:06.86 bitrate= 346.6kbits/s speed=0.0145x    frame=  436 fps=0.9 q=68.0 size=     290kB time=00:00:06.92 bitrate= 343.6kbits/s speed=0.0144x    frame=  438 fps=0.9 q=68.0 size=     290kB time=00:00:06.96 bitrate= 341.6kbits/s speed=0.0144x    frame=  440 fps=0.9 q=68.0 size=     290kB time=00:00:07.00 bitrate= 339.7kbits/s speed=0.0145x    frame=  441 fps=0.9 q=68.0 size=     290kB time=00:00:07.02 bitrate= 338.7kbits/s speed=0.0145x    frame=  442 fps=0.9 q=68.0 size=     290kB time=00:00:07.04 bitrate= 337.7kbits/s speed=0.0144x    frame=  444 fps=0.9 q=68.0 size=     290kB time=00:00:07.08 bitrate= 335.8kbits/s speed=0.0145x    frame=  445 fps=0.9 q=68.0 size=     290kB time=00:00:07.10 bitrate= 334.9kbits/s speed=0.0144x    frame=  446 fps=0.9 q=68.0 size=     290kB time=00:00:07.12 bitrate= 334.0kbits/s speed=0.0144x    frame=  447 fps=0.9 q=68.0 size=     290kB time=00:00:07.14 bitrate= 333.0kbits/s speed=0.0144x    frame=  448 fps=0.9 q=68.0 size=     290kB time=00:00:07.16 bitrate= 332.1kbits/s speed=0.0144x    frame=  449 fps=0.9 q=68.0 size=     290kB time=00:00:07.18 bitrate= 331.2kbits/s speed=0.0143x    frame=  451 fps=0.9 q=68.0 size=     290kB time=00:00:07.22 bitrate= 329.3kbits/s speed=0.0144x    frame=  452 fps=0.9 q=68.0 size=     290kB time=00:00:07.24 bitrate= 328.4kbits/s speed=0.0144x    frame=  453 fps=0.9 q=68.0 size=     290kB time=00:00:07.26 bitrate= 327.5kbits/s speed=0.0144x    frame=  455 fps=0.9 q=68.0 size=     290kB time=00:00:07.30 bitrate= 325.7kbits/s speed=0.0142x    frame=  456 fps=0.9 q=68.0 size=     290kB time=00:00:07.32 bitrate= 324.8kbits/s speed=0.0143x    frame=  458 fps=0.9 q=68.0 size=     290kB time=00:00:07.36 bitrate= 323.1kbits/s speed=0.0143x    frame=  459 fps=0.9 q=68.0 size=     290kB time=00:00:07.38 bitrate= 322.2kbits/s speed=0.0143x    frame=  460 fps=0.9 q=68.0 size=     290kB time=00:00:07.40 bitrate= 321.3kbits/s speed=0.0144x    frame=  461 fps=0.9 q=68.0 size=     290kB time=00:00:07.42 bitrate= 320.5kbits/s speed=0.0142x    frame=  462 fps=0.9 q=68.0 size=     290kB time=00:00:07.44 bitrate= 319.6kbits/s speed=0.0143x    frame=  464 fps=0.9 q=68.0 size=     290kB time=00:00:07.48 bitrate= 317.9kbits/s speed=0.0143x    frame=  465 fps=0.9 q=68.0 size=     290kB time=00:00:07.50 bitrate= 317.0kbits/s speed=0.0142x    frame=  466 fps=0.9 q=68.0 size=     290kB time=00:00:07.52 bitrate= 316.2kbits/s speed=0.0142x    frame=  467 fps=0.9 q=68.0 size=     290kB time=00:00:07.54 bitrate= 315.4kbits/s speed=0.0142x    frame=  469 fps=0.9 q=68.0 size=     290kB time=00:00:07.58 bitrate= 313.7kbits/s speed=0.0142x    frame=  471 fps=0.9 q=68.0 size=     290kB time=00:00:07.62 bitrate= 312.0kbits/s speed=0.0142x    frame=  473 fps=0.9 q=68.0 size=     290kB time=00:00:07.66 bitrate= 310.4kbits/s speed=0.0142x    frame=  474 fps=0.9 q=68.0 size=     290kB time=00:00:07.68 bitrate= 309.6kbits/s speed=0.0142x    frame=  475 fps=0.9 q=68.0 size=     290kB time=00:00:07.70 bitrate= 308.8kbits/s speed=0.0142x    frame=  477 fps=0.9 q=68.0 size=     290kB time=00:00:07.74 bitrate= 307.2kbits/s speed=0.0142x    frame=  478 fps=0.9 q=68.0 size=     290kB time=00:00:07.76 bitrate= 306.4kbits/s speed=0.0142x    frame=  479 fps=0.9 q=68.0 size=     290kB time=00:00:07.78 bitrate= 305.6kbits/s speed=0.0142x    frame=  480 fps=0.9 q=68.0 size=     290kB time=00:00:07.80 bitrate= 304.8kbits/s speed=0.0141x    frame=  481 fps=0.9 q=68.0 size=     290kB time=00:00:07.82 bitrate= 304.1kbits/s speed=0.0141x    frame=  483 fps=0.9 q=68.0 size=     290kB time=00:00:07.86 bitrate= 302.5kbits/s speed=0.0141x    frame=  484 fps=0.9 q=68.0 size=     290kB time=00:00:07.88 bitrate= 301.7kbits/s speed=0.0141x    frame=  485 fps=0.9 q=68.0 size=     290kB time=00:00:07.90 bitrate= 301.0kbits/s speed=0.0141x    frame=  486 fps=0.9 q=68.0 size=     290kB time=00:00:07.92 bitrate= 300.2kbits/s speed=0.0141x    frame=  487 fps=0.9 q=68.0 size=     290kB time=00:00:07.94 bitrate= 299.5kbits/s speed=0.014x    frame=  488 fps=0.9 q=68.0 size=     290kB time=00:00:07.96 bitrate= 298.7kbits/s speed=0.0141x    frame=  489 fps=0.9 q=68.0 size=     290kB time=00:00:07.98 bitrate= 298.0kbits/s speed=0.0141x    frame=  490 fps=0.9 q=68.0 size=     290kB time=00:00:08.00 bitrate= 297.2kbits/s speed=0.0141x    frame=  491 fps=0.9 q=68.0 size=     290kB time=00:00:08.02 bitrate= 296.5kbits/s speed=0.0141x    frame=  493 fps=0.9 q=68.0 size=     290kB time=00:00:08.06 bitrate= 295.0kbits/s speed=0.0141x    frame=  494 fps=0.9 q=68.0 size=     290kB time=00:00:08.08 bitrate= 294.3kbits/s speed=0.014x    frame=  495 fps=0.9 q=68.0 size=     290kB time=00:00:08.10 bitrate= 293.6kbits/s speed=0.014x    frame=  496 fps=0.9 q=67.0 size=     290kB time=00:00:08.12 bitrate= 292.8kbits/s speed=0.014x    frame=  498 fps=0.9 q=67.0 size=     290kB time=00:00:08.16 bitrate= 291.4kbits/s speed=0.014x    frame=  499 fps=0.9 q=67.0 size=     290kB time=00:00:08.18 bitrate= 290.7kbits/s speed=0.014x    frame=  500 fps=0.9 q=67.0 size=     290kB time=00:00:08.20 bitrate= 290.0kbits/s speed=0.014x    frame=  500 fps=0.9 q=67.0 size=     290kB time=00:00:08.20 bitrate= 290.0kbits/s speed=0.014x    frame=  500 fps=0.7 q=-1.0 Lsize=     596kB time=00:00:09.94 bitrate= 491.5kbits/s speed=0.0137x    
video:592kB audio:0kB subtitle:0kB other streams:0kB global headers:0kB muxing overhead: 0.712811%
bench: utime=2760.376s
bench: maxrss=4917188kB
[libx264 @ 0x2adf1c0] frame I:2     Avg QP:50.99  size: 18990
[libx264 @ 0x2adf1c0] frame P:108   Avg QP:51.00  size:  4181
[libx264 @ 0x2adf1c0] frame B:390   Avg QP:51.00  size:   298
[libx264 @ 0x2adf1c0] consecutive B-frames:  0.6%  0.4%  3.6% 32.8% 41.0% 21.6%  0.0%  0.0%  0.0%  0.0%  0.0%  0.0%  0.0%  0.0%  0.0%  0.0%  0.0%
[libx264 @ 0x2adf1c0] mb I  I16..4: 46.9%  6.9% 46.1%
[libx264 @ 0x2adf1c0] mb P  I16..4:  1.4%  8.5% 22.9%  P16..4:  0.5%  0.0%  3.8%  0.8%  0.0%    skip:62.2%
[libx264 @ 0x2adf1c0] mb B  I16..4:  0.0%  0.0%  0.0%  B16..8:  0.3%  0.0%  0.0%  direct: 0.0%  skip:99.7%  L0:17.4% L1:82.4% BI: 0.2%
[libx264 @ 0x2adf1c0] final ratefactor: 59.38
[libx264 @ 0x2adf1c0] 8x8 transform intra:24.9% inter:65.7%
[libx264 @ 0x2adf1c0] direct mvs  spatial:99.2% temporal:0.8%
[libx264 @ 0x2adf1c0] coded y,uvDC,uvAC intra: 0.1% 0.9% 0.0% inter: 0.0% 0.0% 0.0%
[libx264 @ 0x2adf1c0] i16 v,h,dc,p: 51% 17%  0% 31%
[libx264 @ 0x2adf1c0] i8 v,h,dc,ddl,ddr,vr,hd,vl,hu:  0%  0% 99%  0%  0%  0%  0%  0%  0%
[libx264 @ 0x2adf1c0] i4 v,h,dc,ddl,ddr,vr,hd,vl,hu:  1%  0% 99%  0%  0%  0%  0%  0%  0%
[libx264 @ 0x2adf1c0] i8c dc,h,v,p: 55% 37%  7%  2%
[libx264 @ 0x2adf1c0] Weighted P-Frames: Y:0.0% UV:0.0%
[libx264 @ 0x2adf1c0] ref P L0: 90.1%  0.0%  3.2%  1.3%  0.8%  1.5%  1.0%  0.4%  0.2%  0.4%  0.1%  0.3%  0.1%  0.2%  0.2%  0.1%
[libx264 @ 0x2adf1c0] ref B L0: 75.5%  6.5%  2.4%  1.2%  2.3%  1.7%  2.9%  0.7%  0.9%  0.6%  0.8%  1.2%  1.0%  1.1%  1.4%
[libx264 @ 0x2adf1c0] ref B L1: 89.1% 10.9%
[libx264 @ 0x2adf1c0] kb/s:484.62
